<svg version="1" xmlns="http://www.w3.org/2000/svg" width="960" height="960" viewBox="0 0 720.000000 720.000000"><path d="M335 .6c-1.9.2-8.4.9-14.5 1.5-21.9 2.2-55 9.4-76.5 16.7C186.5 38.4 131.5 74.9 91.5 120 46.9 170.3 17.4 230.3 5.6 295c-4.5 24.9-5 31.7-5 65 0 35.3.7 43.6 6.5 72.1 24.3 121 110.7 222 227 265.5 24.3 9 52.2 16 80.9 20.1 18 2.5 72.3 2.5 89.5 0 49.4-7.3 87.6-19.5 126-40.4C628.1 624 694.8 532.2 714.4 424c4.3-24 5.1-34 5.1-64.5 0-31-1.1-42.9-6.1-68.5-18.2-93-72.5-175.3-150.6-228.3-47.6-32.4-97.7-51.5-156.3-59.8-10.3-1.5-21.1-2.1-41-2.4-14.8-.2-28.6-.1-30.5.1zM555.8 149c4.7 2.1 7.2 6.4 7.2 12 0 4.1-4.3 8.4-10.1 10.1-2.4.7-5.5 2.2-6.8 3.3-4.8 4.3-23.1 29.1-23.1 31.4 0 .6 3 3.2 6.8 5.8 24.6 17.6 47.3 45.6 63.2 77.9 12 24.4 18.1 47.4 20.1 75.4 3 43.7-6.8 84-27.2 111-7.4 9.9-22.5 24.4-31.9 30.8-19.6 13.2-46.7 22.8-79.2 28-16.5 2.6-57.5 2.4-78.3-.5-32.3-4.4-61.4-13.2-81.6-24.6l-4.1-2.4-9.4 6.4c-25.2 17.1-47.4 24.1-79.9 25.1-36 1.1-57.7-5-73.6-20.7-8.8-8.6-13.1-16.6-15-27.4-2.8-16.4.8-27 13.9-40.7 6.4-6.8 9-8.7 16.7-12.4 10.7-5.1 15.6-6.4 27.9-7.2 25.4-1.6 47.2 4.9 92.3 27.8l21.1 10.7 5.9-6.6c21.5-24.6 42.3-57.7 70.1-111.7 30.6-59.5 58.1-105.6 76.7-128.4l6.5-8-4.6-2.7c-12.5-7.3-31.4-13.8-50.9-17.5-13.9-2.7-46.4-3.7-61.6-2-35 4-67.1 15.1-92.4 31.9-18.4 12.2-39.6 36.1-47.1 53.1-7.7 17.4-7.2 36.3 1.5 47.7 6.7 9 18.5 14.2 33.7 15.1 21.7 1.3 36.3-6.7 49.5-27 4.1-6.3 5.1-9.1 6.9-17.9.9-4.4 1.8-6.3 4.3-8.4 2.7-2.3 3.7-2.6 7.9-2.1 6.2.8 10.4 3.1 12.9 7 1.7 2.7 1.9 4.3 1.5 9.8-3 35.7-36.2 65.9-75.1 68.5-11.1.8-31.4-3.1-41.6-7.9-17.3-8.1-29.5-19.9-37.5-36.2-6.5-13.3-8.6-22.5-8.7-37 0-9.2.5-13.8 2.2-19.9 7-26.1 29.2-53.3 58.3-71.4 39.7-24.7 101.5-39.7 156.8-37.9 36.4 1.2 66.2 7.9 97.7 21.9l11.2 5 5.1-5.5c8.9-9.8 27-24.1 36.7-29.1 4.3-2.2 13-4.5 17.3-4.5 1.9 0 5.4.8 7.8 1.9z"/><path d="M493.6 252.7c-4.4 7.1-18.6 30.3-31.6 51.8-62.4 102.9-88.9 142-116.5 171.8-4.9 5.4-9.1 10.1-9.3 10.6-.4 1.1 16 8.2 25.1 11 29.8 9.1 76.8 10.8 108.6 3.9 24.7-5.3 47.6-16.9 64.2-32.5 21.9-20.7 32.9-49.6 32.9-86.6 0-40.8-13.6-81.1-39-115.7-5.7-7.7-24.1-27-25.8-27-.4 0-4.3 5.7-8.6 12.7zM190.7 465.1c-4.1 2.2-9 8.3-10.7 13.3-2.2 6.6 2.7 18 9.7 22.9 6.6 4.6 14.9 6 30.8 5.4 20.9-.8 39.6-5.5 51.1-12.9l4.9-3.1-12-5.8c-17.9-8.7-39-17.5-47.5-19.8-9.9-2.8-21.1-2.8-26.3 0z"/></svg>